<svg width="176" height="134" viewBox="0 0 176 134" fill="none" xmlns="http://www.w3.org/2000/svg">
<path d="M175.5 34.5L154.667 45.9583L133.833 65.75V133.667H163C169.904 133.667 175.5 128.071 175.5 121.167V34.5Z" fill="#4CAF50"/>
<path d="M0.5 34.5L15.5583 41.625L42.1667 65.75V133.667H13C6.09583 133.667 0.5 128.071 0.5 121.167V34.5Z" fill="#1E88E5"/>
<path d="M133.833 13.6666L88 48.0416L42.1667 13.6666L38 37.8333L42.1667 65.75L88 100.125L133.833 65.75L138 37.8333L133.833 13.6666Z" fill="#E53935"/>
<path d="M0.5 18.2417V34.5L42.1667 65.75V13.6667L29.15 3.91254C26.05 1.58754 22.2833 0.333374 18.4083 0.333374C8.51667 0.333374 0.5 8.35004 0.5 18.2417Z" fill="#C62828"/>
<path d="M175.5 18.2417V34.5L133.833 65.75V13.6667L146.85 3.91254C149.95 1.58754 153.717 0.333374 157.592 0.333374C167.483 0.333374 175.5 8.35004 175.5 18.2417Z" fill="#FBC02D"/>
</svg>
