<svg width="155" height="155" viewBox="0 0 155 155" fill="none" xmlns="http://www.w3.org/2000/svg">
<path d="M77.5253 0C45.1698 0 35.707 0.0333916 33.8676 0.186C27.2277 0.738083 23.096 1.78384 18.5946 4.02551C15.1257 5.7486 12.3898 7.74586 9.68976 10.5456C4.77245 15.6515 1.79223 21.9331 0.713376 29.4C0.188885 33.0249 0.0362757 33.7642 0.00528546 52.2799C-0.00660683 58.4519 0.00528546 66.5745 0.00528546 77.4696C0.00528546 109.808 0.0410207 119.263 0.196031 121.1C0.732472 127.563 1.74572 131.629 3.89148 136.076C7.99227 144.59 15.8242 150.982 25.051 153.366C28.2458 154.189 31.7743 154.642 36.3042 154.857C38.2235 154.94 57.7856 155 77.3596 155C96.9336 155 116.508 154.976 118.379 154.881C123.624 154.634 126.67 154.225 130.038 153.354C139.324 150.958 147.013 144.662 151.197 136.029C153.301 131.688 154.368 127.467 154.851 121.342C154.956 120.006 155 98.7135 155 77.4494C155 56.1815 154.952 34.928 154.847 33.5925C154.359 27.3681 153.292 23.1828 151.12 18.7589C149.338 15.1376 147.359 12.4332 144.486 9.66807C139.359 4.76962 133.088 1.78859 125.616 0.710667C121.996 0.187172 121.275 0.0321619 102.75 0H77.5253Z" fill="url(#paint0_radial_114_4)"/>
<path d="M77.5253 0C45.1698 0 35.707 0.0333916 33.8676 0.186C27.2277 0.738083 23.096 1.78384 18.5946 4.02551C15.1257 5.7486 12.3898 7.74586 9.68976 10.5456C4.77245 15.6515 1.79223 21.9331 0.713376 29.4C0.188885 33.0249 0.0362757 33.7642 0.00528546 52.2799C-0.00660683 58.4519 0.00528546 66.5745 0.00528546 77.4696C0.00528546 109.808 0.0410207 119.263 0.196031 121.1C0.732472 127.563 1.74572 131.629 3.89148 136.076C7.99227 144.59 15.8242 150.982 25.051 153.366C28.2458 154.189 31.7743 154.642 36.3042 154.857C38.2235 154.94 57.7856 155 77.3596 155C96.9336 155 116.508 154.976 118.379 154.881C123.624 154.634 126.67 154.225 130.038 153.354C139.324 150.958 147.013 144.662 151.197 136.029C153.301 131.688 154.368 127.467 154.851 121.342C154.956 120.006 155 98.7135 155 77.4494C155 56.1815 154.952 34.928 154.847 33.5925C154.359 27.3681 153.292 23.1828 151.12 18.7589C149.338 15.1376 147.359 12.4332 144.486 9.66807C139.359 4.76962 133.088 1.78859 125.616 0.710667C121.996 0.187172 121.275 0.0321619 102.75 0H77.5253Z" fill="url(#paint1_radial_114_4)"/>
<path d="M77.5253 0C45.1698 0 35.707 0.0333916 33.8676 0.186C27.2277 0.738083 23.096 1.78384 18.5946 4.02551C15.1257 5.7486 12.3898 7.74586 9.68976 10.5456C4.77245 15.6515 1.79223 21.9331 0.713376 29.4C0.188885 33.0249 0.0362757 33.7642 0.00528546 52.2799C-0.00660683 58.4519 0.00528546 66.5745 0.00528546 77.4696C0.00528546 109.808 0.0410207 119.263 0.196031 121.1C0.732472 127.563 1.74572 131.629 3.89148 136.076C7.99227 144.59 15.8242 150.982 25.051 153.366C28.2458 154.189 31.7743 154.642 36.3042 154.857C38.2235 154.94 57.7856 155 77.3596 155C96.9336 155 116.508 154.976 118.379 154.881C123.624 154.634 126.67 154.225 130.038 153.354C139.324 150.958 147.013 144.662 151.197 136.029C153.301 131.688 154.368 127.467 154.851 121.342C154.956 120.006 155 98.7135 155 77.4494C155 56.1815 154.952 34.928 154.847 33.5925C154.359 27.3681 153.292 23.1828 151.12 18.7589C149.338 15.1376 147.359 12.4332 144.486 9.66807C139.359 4.76962 133.088 1.78859 125.616 0.710667C121.996 0.187172 121.275 0.0321619 102.75 0H77.5253Z" fill="url(#paint2_radial_114_4)"/>
<path d="M77.5253 0C45.1698 0 35.707 0.0333916 33.8676 0.186C27.2277 0.738083 23.096 1.78384 18.5946 4.02551C15.1257 5.7486 12.3898 7.74586 9.68976 10.5456C4.77245 15.6515 1.79223 21.9331 0.713376 29.4C0.188885 33.0249 0.0362757 33.7642 0.00528546 52.2799C-0.00660683 58.4519 0.00528546 66.5745 0.00528546 77.4696C0.00528546 109.808 0.0410207 119.263 0.196031 121.1C0.732472 127.563 1.74572 131.629 3.89148 136.076C7.99227 144.59 15.8242 150.982 25.051 153.366C28.2458 154.189 31.7743 154.642 36.3042 154.857C38.2235 154.94 57.7856 155 77.3596 155C96.9336 155 116.508 154.976 118.379 154.881C123.624 154.634 126.67 154.225 130.038 153.354C139.324 150.958 147.013 144.662 151.197 136.029C153.301 131.688 154.368 127.467 154.851 121.342C154.956 120.006 155 98.7135 155 77.4494C155 56.1815 154.952 34.928 154.847 33.5925C154.359 27.3681 153.292 23.1828 151.12 18.7589C149.338 15.1376 147.359 12.4332 144.486 9.66807C139.359 4.76962 133.088 1.78859 125.616 0.710667C121.996 0.187172 121.275 0.0321619 102.75 0H77.5253Z" fill="url(#paint3_radial_114_4)"/>
<path d="M77.5314 19.9023C61.8801 19.9023 59.9158 19.9707 53.7686 20.2503C47.6334 20.531 43.4456 21.5016 39.7813 22.9257C35.9909 24.3966 32.7756 26.3641 29.5724 29.5662C26.3667 32.7672 24.3976 35.98 22.9209 39.7664C21.4921 43.4292 20.5196 47.6151 20.2435 53.7433C19.9685 59.886 19.8965 61.8499 19.8965 77.4897C19.8965 93.1295 19.9661 95.0862 20.2446 101.229C20.5268 107.36 21.4981 111.544 22.922 115.206C24.3952 118.993 26.3642 122.206 29.5687 125.407C32.7708 128.61 35.9861 130.583 39.7741 132.054C43.4407 133.478 47.6298 134.448 53.7638 134.729C59.911 135.009 61.874 135.077 77.5242 135.077C93.1768 135.077 95.1351 135.009 101.282 134.729C107.418 134.448 111.61 133.478 115.277 132.054C119.066 130.583 122.276 128.61 125.479 125.407C128.684 122.206 130.653 118.993 132.13 115.207C133.547 111.544 134.519 107.358 134.807 101.23C135.084 95.0875 135.156 93.1295 135.156 77.4897C135.156 61.8499 135.084 59.8872 134.807 53.7445C134.519 47.6138 133.547 43.4292 132.13 39.7676C130.653 35.98 128.684 32.7671 125.479 29.5662C122.273 26.3629 119.067 24.3953 115.273 22.9257C111.599 21.5016 107.409 20.531 101.274 20.2503C95.1266 19.9707 93.1696 19.9023 77.5134 19.9023H77.5314ZM72.3615 30.2801C73.896 30.2777 75.608 30.2801 77.5314 30.2801C92.9187 30.2801 94.7424 30.3353 100.819 30.6112C106.438 30.868 109.487 31.8061 111.519 32.5943C114.208 33.6381 116.126 34.8859 118.141 36.9014C120.159 38.917 121.407 40.8366 122.454 43.5239C123.243 45.5515 124.183 48.5988 124.439 54.2136C124.715 60.2843 124.775 62.1079 124.775 77.4765C124.775 92.8451 124.715 94.6688 124.439 100.739C124.182 106.354 123.243 109.402 122.454 111.429C121.41 114.116 120.159 116.03 118.141 118.044C116.124 120.06 114.209 121.308 111.519 122.351C109.49 123.143 106.438 124.079 100.819 124.336C94.7437 124.612 92.9187 124.672 77.5314 124.672C62.143 124.672 60.3192 124.612 54.244 124.336C48.6251 124.077 45.5756 123.138 43.5429 122.35C40.8534 121.306 38.9324 120.059 36.9154 118.043C34.8983 116.028 33.6497 114.113 32.6027 111.424C31.8139 109.397 30.8738 106.349 30.6181 100.735C30.342 94.6639 30.2867 92.8404 30.2867 77.4621C30.2867 62.0839 30.342 60.2699 30.6181 54.1992C30.8751 48.5844 31.8139 45.5371 32.6027 43.5072C33.6472 40.8198 34.8983 38.9002 36.9154 36.8846C38.9324 34.869 40.8534 33.6214 43.5429 32.5752C45.5743 31.7833 48.6251 30.8476 54.244 30.5896C59.5604 30.3496 61.6207 30.2777 72.3616 30.2656L72.3615 30.2801ZM108.294 39.842C104.476 39.842 101.378 42.9337 101.378 46.75C101.378 50.5652 104.476 53.6606 108.294 53.6606C112.112 53.6606 115.21 50.5652 115.21 46.75C115.21 42.9349 112.112 39.8396 108.294 39.8396L108.294 39.842ZM77.5314 47.9162C61.1873 47.9162 47.936 61.1577 47.936 77.4897C47.936 93.8217 61.1873 107.057 77.5314 107.057C93.8756 107.057 107.122 93.8217 107.122 77.4897C107.122 61.1577 93.8744 47.9162 77.5303 47.9162H77.5314ZM77.5314 58.2939C88.1402 58.2939 96.7415 66.8876 96.7415 77.4897C96.7415 88.0906 88.1402 96.6855 77.5314 96.6855C66.9215 96.6855 58.3214 88.0906 58.3214 77.4897C58.3214 66.8876 66.9215 58.2939 77.5314 58.2939Z" fill="white"/>
<defs>
<radialGradient id="paint0_radial_114_4" cx="0" cy="0" r="1" gradientUnits="userSpaceOnUse" gradientTransform="translate(149.995 72.6504) rotate(164.25) scale(99.0362 71.3508)">
<stop stop-color="#FF005F"/>
<stop offset="1" stop-color="#FC01D8"/>
</radialGradient>
<radialGradient id="paint1_radial_114_4" cx="0" cy="0" r="1" gradientUnits="userSpaceOnUse" gradientTransform="translate(41.1707 166.938) rotate(-90) scale(123.724 131.268)">
<stop stop-color="#FFCC00"/>
<stop offset="0.1242" stop-color="#FFCC00"/>
<stop offset="0.5672" stop-color="#FE4A05"/>
<stop offset="0.6942" stop-color="#FF0F3F"/>
<stop offset="1" stop-color="#FE0657" stop-opacity="0"/>
</radialGradient>
<radialGradient id="paint2_radial_114_4" cx="0" cy="0" r="1" gradientUnits="userSpaceOnUse" gradientTransform="translate(81.4168 152.814) rotate(-59.8703) scale(51.1609 66.6058)">
<stop stop-color="#FFCC00"/>
<stop offset="1" stop-color="#FFCC00" stop-opacity="0"/>
</radialGradient>
<radialGradient id="paint3_radial_114_4" cx="0" cy="0" r="1" gradientUnits="userSpaceOnUse" gradientTransform="translate(21.0302 6.31156) rotate(164.274) scale(97.9377 33.3673)">
<stop stop-color="#780CFF"/>
<stop offset="1" stop-color="#820BFF" stop-opacity="0"/>
</radialGradient>
</defs>
</svg>
