<svg width="150" height="150" viewBox="0 0 150 150" fill="none" xmlns="http://www.w3.org/2000/svg">
<path d="M150 129.167C150 140.675 140.675 150 129.167 150H20.8333C9.32917 150 0 140.675 0 129.167V20.8333C0 9.325 9.32917 0 20.8333 0H129.167C140.675 0 150 9.325 150 20.8333V129.167Z" fill="#0288D1"/>
<path d="M27 54.1667H47.8333V125H27V54.1667ZM37.3542 45.8333H37.2375C31.0208 45.8333 27 41.2 27 35.4125C27 29.5 31.1458 25 37.475 25C43.8125 25 47.7167 29.5 47.8333 35.4125C47.8333 41.1958 43.8125 45.8333 37.3542 45.8333ZM127 125H106.167V87.0875C106.167 77.9292 101.062 71.6792 92.8667 71.6792C86.6125 71.6792 83.2292 75.8958 81.5875 79.9708C80.9875 81.4292 81.1667 85.4625 81.1667 87.5V125H60.3333V54.1667H81.1667V65.0667C84.1708 60.4167 88.875 54.1667 100.908 54.1667C115.817 54.1667 126.996 63.5417 126.996 84.475L127 125Z" fill="white"/>
</svg>
